<?xml version="1.0" encoding="utf-8"?>
<!-- Generator: Adobe Illustrator 23.0.3, SVG Export Plug-In . SVG Version: 6.00 Build 0)  -->
<svg version="1.1" id="Ñëîé_1" xmlns="http://www.w3.org/2000/svg" xmlns:xlink="http://www.w3.org/1999/xlink" x="0px" y="0px"
	 viewBox="0 0 600 450" style="enable-background:new 0 0 600 450;" xml:space="preserve">
<style type="text/css">
	.st0{fill:url(#SVGID_1_);}
	.st1{fill:url(#SVGID_2_);}
	.st2{fill:url(#SVGID_3_);}
	.st3{fill:url(#SVGID_4_);}
	.st4{opacity:0.6;fill:#020230;}
	.st5{fill:url(#SVGID_5_);}
	.st6{fill:url(#SVGID_6_);}
	.st7{fill:url(#SVGID_7_);}
	.st8{fill:url(#SVGID_8_);}
	.st9{fill:#FFFFFF;}
	.st10{opacity:0.4;}
	.st11{fill:#06033E;}
	.st12{fill:url(#SVGID_9_);}
	.st13{fill:url(#SVGID_10_);}
	.st14{opacity:0.4;fill:#06033E;}
	.st15{opacity:0.5;fill:#06033E;}
	.st16{fill:url(#SVGID_11_);}
	.st17{opacity:0.5;}
	.st18{fill:#E8975B;}
	.st19{fill:#F8359E;}
	.st20{fill:url(#SVGID_12_);}
	.st21{fill:url(#SVGID_13_);}
	.st22{fill:url(#SVGID_14_);}
	.st23{fill:url(#SVGID_15_);}
	.st24{fill:url(#SVGID_16_);}
	.st25{fill:url(#SVGID_17_);}
	.st26{fill:url(#SVGID_18_);}
	.st27{fill:#0C0A78;}
	.st28{fill:url(#SVGID_19_);}
	.st29{opacity:0.5;fill:#FFFFFF;}
</style>
<radialGradient id="SVGID_1_" cx="171.4004" cy="135.2401" r="733.4801" gradientTransform="matrix(1.0858 0 0 1.088 -119.9181 -249.2813)" gradientUnits="userSpaceOnUse">
	<stop  offset="3.968250e-03" style="stop-color:#4C02F1"/>
	<stop  offset="8.168010e-03" style="stop-color:#4B02EF"/>
	<stop  offset="0.1263" style="stop-color:#3903C4"/>
	<stop  offset="0.2487" style="stop-color:#29039E"/>
	<stop  offset="0.3765" style="stop-color:#1D0380"/>
	<stop  offset="0.5099" style="stop-color:#130468"/>
	<stop  offset="0.6513" style="stop-color:#0C0457"/>
	<stop  offset="0.8062" style="stop-color:#07044D"/>
	<stop  offset="1" style="stop-color:#06044A"/>
</radialGradient>
<rect x="0" class="st0" width="600" height="450"/>
<linearGradient id="SVGID_2_" gradientUnits="userSpaceOnUse" x1="481.059" y1="306.9162" x2="513.6703" y2="306.9162">
	<stop  offset="0" style="stop-color:#E39A65"/>
	<stop  offset="1" style="stop-color:#E95F8D"/>
</linearGradient>
<path class="st1" d="M497.36,316.51c-1.2,0-2.41-0.31-3.48-0.93l-11.74-6.78c-0.68-0.39-1.09-1.1-1.09-1.88
	c0-0.79,0.41-1.49,1.09-1.88l11.74-6.78c2.15-1.24,4.82-1.24,6.96,0l11.74,6.78c0.68,0.39,1.09,1.1,1.09,1.88
	c0,0.79-0.41,1.49-1.09,1.88l-11.74,6.78C499.77,316.19,498.57,316.51,497.36,316.51z M497.36,299.19c-0.88,0-1.76,0.23-2.55,0.68
	l-11.74,6.78c-0.14,0.08-0.16,0.2-0.16,0.27c0,0.07,0.02,0.19,0.16,0.27l11.74,6.78c0,0,0,0,0,0c1.57,0.91,3.53,0.91,5.1,0
	l11.74-6.78c0.14-0.08,0.16-0.2,0.16-0.27c0-0.07-0.02-0.19-0.16-0.27l-11.74-6.78C499.13,299.41,498.25,299.19,497.36,299.19z"/>
<linearGradient id="SVGID_3_" gradientUnits="userSpaceOnUse" x1="436.4076" y1="262.223" x2="491.186" y2="262.223">
	<stop  offset="0" style="stop-color:#E39A65"/>
	<stop  offset="1" style="stop-color:#E95F8D"/>
</linearGradient>
<path class="st2" d="M463.8,278.05c-1.96,0-3.91-0.5-5.66-1.51l-20.2-11.66c-0.96-0.55-1.54-1.55-1.54-2.66
	c0-1.11,0.57-2.1,1.54-2.66l20.2-11.66c3.49-2.01,7.82-2.02,11.31,0l20.2,11.66c0.96,0.55,1.54,1.55,1.54,2.66
	c0,1.11-0.57,2.1-1.53,2.66l-20.2,11.66C467.71,277.55,465.75,278.05,463.8,278.05z M459.07,274.93c2.92,1.68,6.54,1.68,9.45,0
	l20.2-11.66c0.54-0.32,0.6-0.84,0.6-1.05c0-0.21-0.06-0.73-0.6-1.05l-20.2-11.66c-2.92-1.68-6.54-1.68-9.45,0l-20.2,11.66
	c-0.55,0.32-0.6,0.84-0.6,1.05c0,0.21,0.06,0.73,0.6,1.05L459.07,274.93z"/>
<linearGradient id="SVGID_4_" gradientUnits="userSpaceOnUse" x1="75.185" y1="280.5753" x2="129.9633" y2="280.5753">
	<stop  offset="0" style="stop-color:#E39A65"/>
	<stop  offset="1" style="stop-color:#E95F8D"/>
</linearGradient>
<path class="st3" d="M102.57,296.41c-1.96,0-3.91-0.5-5.66-1.51l-20.2-11.66c-0.96-0.56-1.54-1.55-1.54-2.66
	c0-1.11,0.57-2.1,1.54-2.66l20.2-11.66c3.49-2.02,7.82-2.02,11.31,0l20.2,11.66c0.96,0.55,1.54,1.55,1.54,2.66
	c0,1.11-0.57,2.1-1.54,2.66l-20.2,11.66C106.49,295.9,104.53,296.41,102.57,296.41z M102.57,266.61c-1.63,0-3.27,0.42-4.73,1.26
	l-20.2,11.66c-0.54,0.32-0.6,0.84-0.6,1.05c0,0.21,0.06,0.73,0.6,1.05l20.2,11.66l0,0c2.92,1.68,6.54,1.68,9.45,0l20.2-11.66
	c0.55-0.32,0.6-0.84,0.6-1.05c0-0.21-0.06-0.73-0.6-1.05l-20.2-11.66C105.84,267.03,104.21,266.61,102.57,266.61z"/>
<g>
	<path class="st4" d="M307.12,347.28l-144.43-83.39c-2.11-1.22-1.84-3.34,0.59-4.74l92.7-53.52c2.43-1.4,6.11-1.56,8.21-0.34
		l144.43,83.39c2.11,1.22,1.84,3.34-0.59,4.74l-92.7,53.52C312.9,348.34,309.23,348.5,307.12,347.28z"/>
	<linearGradient id="SVGID_5_" gradientUnits="userSpaceOnUse" x1="138.9594" y1="277.0616" x2="431.3178" y2="277.0616">
		<stop  offset="0" style="stop-color:#E39A65"/>
		<stop  offset="1" style="stop-color:#E95F8D"/>
	</linearGradient>
	<path class="st5" d="M310.43,362.34c-1.69,0-3.31-0.35-4.54-1.07h0L141.05,266.1c-1.35-0.78-2.09-1.9-2.09-3.16
		c0-1.45,1.01-2.86,2.76-3.87l112.36-65.83c3.08-1.78,7.61-1.95,10.31-0.39l164.84,95.17c1.35,0.78,2.09,1.9,2.09,3.16
		c0,1.45-1.01,2.85-2.76,3.87l-112.36,65.83C314.52,361.84,312.43,362.34,310.43,362.34z M259.87,193.66c-1.69,0-3.48,0.41-4.85,1.2
		l-112.36,65.83c-1.15,0.67-1.83,1.51-1.83,2.26c0,0.72,0.63,1.24,1.16,1.54l164.84,95.17c0,0,0,0,0,0c2.1,1.22,5.97,1.04,8.44-0.39
		l112.36-65.83c1.15-0.67,1.83-1.51,1.83-2.26c0-0.72-0.63-1.24-1.16-1.54l-164.84-95.17C262.52,193.92,261.23,193.66,259.87,193.66
		z"/>
	<radialGradient id="SVGID_6_" cx="300.4459" cy="60.6072" r="223.2961" gradientUnits="userSpaceOnUse">
		<stop  offset="0" style="stop-color:#E39A65"/>
		<stop  offset="0.4742" style="stop-color:#A92FFB"/>
		<stop  offset="0.5947" style="stop-color:#891CFB"/>
		<stop  offset="0.7421" style="stop-color:#6507FA"/>
		<stop  offset="0.8016" style="stop-color:#0D0C6F"/>
	</radialGradient>
	<path class="st6" d="M446.99,148.88L303.13,65.82c-0.99-0.57-2.02-0.69-2.94-0.42v0l0,0c0,0-0.01,0-0.01,0l-2.66,0.93l0.94,0.22
		c-0.38,0.45-0.68,1-0.88,1.65l-32.53,105.63c-0.81,2.62,0.37,5.8,2.64,7.11L411.54,264c0.35,0.2,0.7,0.34,1.06,0.43l-0.36,0.78
		l2.54-0.89l-0.01,0c1.04-0.41,1.9-1.35,2.31-2.69l32.53-105.63C450.43,153.37,449.25,150.19,446.99,148.88z"/>
	<radialGradient id="SVGID_7_" cx="163.8732" cy="239.9302" r="244.1723" gradientUnits="userSpaceOnUse">
		<stop  offset="0" style="stop-color:#E39A65"/>
		<stop  offset="0.4742" style="stop-color:#A92FFB"/>
		<stop  offset="0.5679" style="stop-color:#891CFB"/>
		<stop  offset="0.6825" style="stop-color:#6507FA"/>
		<stop  offset="0.7381" style="stop-color:#0D0C6F"/>
	</radialGradient>
	<path class="st7" d="M406.39,267.94l0.05,0.06l-142.1-82.04c-2.09-1.21-5.74-1.06-8.16,0.34l-91.81,53.01l-3.06-1.17l0.86,4.29l0,0
		c0.11,0.65,0.57,1.25,1.38,1.72l143.41,82.8c2.09,1.21,5.74,1.06,8.16-0.34l92.04-53.14c1.14-0.66,1.79-1.47,1.95-2.27l0.01,0.01
		l0.88-4.18L406.39,267.94z"/>
	<radialGradient id="SVGID_8_" cx="186.3305" cy="190.9207" r="218.96" gradientUnits="userSpaceOnUse">
		<stop  offset="0" style="stop-color:#E39A65"/>
		<stop  offset="0.4742" style="stop-color:#A92FFB"/>
		<stop  offset="0.5875" style="stop-color:#891CFB"/>
		<stop  offset="0.7262" style="stop-color:#6507FA"/>
		<stop  offset="1" style="stop-color:#3919BB"/>
	</radialGradient>
	<path class="st8" d="M307.12,323.17l-144.43-83.39c-2.11-1.22-1.84-3.34,0.59-4.74l92.7-53.52c2.43-1.4,6.11-1.56,8.21-0.34
		l144.43,83.39c2.11,1.22,1.84,3.34-0.59,4.74l-92.7,53.52C312.9,324.23,309.23,324.39,307.12,323.17z"/>
	<path class="st9" d="M408.03,268.19l-92.7,53.52c-2.43,1.4-6.11,1.56-8.21,0.34l-144.43-83.39c-0.72-0.41-1.14-0.94-1.31-1.5
		c-0.28,0.97,0.13,1.94,1.31,2.62l144.43,83.39c2.11,1.22,5.78,1.06,8.21-0.34l92.7-53.52c1.6-0.93,2.24-2.16,1.9-3.24
		C409.72,266.82,409.09,267.57,408.03,268.19z"/>
	<g class="st10">
		<path class="st11" d="M231.58,226.25l-4.88-2.82c-0.39-0.23-0.34-0.62,0.11-0.88l5.76-3.32c0.45-0.26,1.14-0.29,1.53-0.06
			l4.88,2.82c0.39,0.23,0.34,0.62-0.11,0.88l-5.76,3.32C232.66,226.45,231.97,226.48,231.58,226.25z"/>
		<path class="st11" d="M239.11,230.6l-4.88-2.82c-0.39-0.23-0.34-0.62,0.11-0.88l5.76-3.32c0.45-0.26,1.14-0.29,1.53-0.06
			l4.88,2.82c0.39,0.23,0.34,0.62-0.11,0.88l-5.76,3.32C240.19,230.8,239.5,230.82,239.11,230.6z"/>
		<path class="st11" d="M246.64,234.95l-4.88-2.82c-0.39-0.23-0.34-0.62,0.11-0.88l5.76-3.32c0.45-0.26,1.14-0.29,1.53-0.06
			l4.88,2.82c0.39,0.23,0.34,0.62-0.11,0.88l-5.76,3.32C247.72,235.14,247.03,235.17,246.64,234.95z"/>
		<path class="st11" d="M257.06,231.36l-4.88-2.82c-0.39-0.23-0.34-0.62,0.11-0.88l4.83-2.79c0.45-0.26,1.14-0.29,1.53-0.06
			l4.88,2.82c0.39,0.23,0.34,0.62-0.11,0.88l-4.83,2.79C258.13,231.55,257.45,231.58,257.06,231.36z"/>
		<path class="st11" d="M264.59,235.7l-4.88-2.82c-0.39-0.23-0.34-0.62,0.11-0.88l4.83-2.79c0.45-0.26,1.14-0.29,1.53-0.06
			l4.88,2.82c0.39,0.23,0.34,0.62-0.11,0.88l-4.83,2.79C265.66,235.9,264.98,235.93,264.59,235.7z"/>
		<path class="st11" d="M272.12,240.05l-4.88-2.82c-0.39-0.23-0.34-0.62,0.11-0.88l4.83-2.79c0.45-0.26,1.14-0.29,1.53-0.06
			l4.88,2.82c0.39,0.23,0.34,0.62-0.11,0.88l-4.83,2.79C273.19,240.25,272.51,240.28,272.12,240.05z"/>
		<path class="st11" d="M279.65,244.4l-4.88-2.82c-0.39-0.23-0.34-0.62,0.11-0.88l4.83-2.79c0.45-0.26,1.14-0.29,1.53-0.06
			l4.88,2.82c0.39,0.23,0.34,0.62-0.11,0.88l-4.83,2.79C280.72,244.6,280.04,244.62,279.65,244.4z"/>
		<path class="st11" d="M287.18,248.75l-4.88-2.82c-0.39-0.23-0.34-0.62,0.11-0.88l4.83-2.79c0.45-0.26,1.14-0.29,1.53-0.06
			l4.88,2.82c0.39,0.23,0.34,0.62-0.11,0.88l-4.83,2.79C288.25,248.94,287.57,248.97,287.18,248.75z"/>
		<path class="st11" d="M294.71,253.09l-4.88-2.82c-0.39-0.23-0.34-0.62,0.11-0.88l4.83-2.79c0.45-0.26,1.14-0.29,1.53-0.06
			l4.88,2.82c0.39,0.23,0.34,0.62-0.11,0.88l-4.83,2.79C295.78,253.29,295.1,253.32,294.71,253.09z"/>
		<path class="st11" d="M302.24,257.44l-4.88-2.82c-0.39-0.23-0.34-0.62,0.11-0.88l4.83-2.79c0.45-0.26,1.14-0.29,1.53-0.06
			l4.88,2.82c0.39,0.23,0.34,0.62-0.11,0.88l-4.83,2.79C303.31,257.64,302.63,257.67,302.24,257.44z"/>
		<path class="st11" d="M309.77,261.79l-4.88-2.82c-0.39-0.23-0.34-0.62,0.11-0.88l4.83-2.79c0.45-0.26,1.14-0.29,1.53-0.06
			l4.88,2.82c0.39,0.23,0.34,0.62-0.11,0.88l-4.83,2.79C310.84,261.99,310.16,262.02,309.77,261.79z"/>
		<path class="st11" d="M317.3,266.14l-4.88-2.82c-0.39-0.23-0.34-0.62,0.11-0.88l4.83-2.79c0.45-0.26,1.14-0.29,1.53-0.06
			l4.88,2.82c0.39,0.23,0.34,0.62-0.11,0.88l-4.83,2.79C318.37,266.33,317.69,266.36,317.3,266.14z"/>
		<path class="st11" d="M324.83,270.48l-4.88-2.82c-0.39-0.23-0.34-0.62,0.11-0.88l4.83-2.79c0.45-0.26,1.14-0.29,1.53-0.06
			l4.88,2.82c0.39,0.23,0.34,0.62-0.11,0.88l-4.83,2.79C325.9,270.68,325.22,270.71,324.83,270.48z"/>
		<path class="st11" d="M268.15,229.3l-4.88-2.82c-0.39-0.23-0.34-0.62,0.11-0.88l4.83-2.79c0.45-0.26,1.14-0.29,1.53-0.06
			l4.88,2.82c0.39,0.23,0.34,0.62-0.11,0.88l-4.83,2.79C269.23,229.5,268.54,229.52,268.15,229.3z"/>
		<path class="st11" d="M260.51,224.89l-4.88-2.82c-0.39-0.23-0.34-0.62,0.11-0.88l4.83-2.79c0.45-0.26,1.14-0.29,1.53-0.06
			l4.88,2.82c0.39,0.23,0.34,0.62-0.11,0.88l-4.83,2.79C261.58,225.08,260.9,225.11,260.51,224.89z"/>
		<path class="st11" d="M252.85,220.47l-10.5-6.06c-0.39-0.23-0.34-0.62,0.11-0.88l4.83-2.79c0.45-0.26,1.14-0.29,1.53-0.06
			l10.5,6.06c0.39,0.23,0.34,0.62-0.11,0.88l-4.83,2.79C253.93,220.66,253.25,220.69,252.85,220.47z"/>
		<path class="st11" d="M258.2,215.09l-8.52-4.92c-0.39-0.23-0.34-0.62,0.11-0.88l4.83-2.79c0.45-0.26,1.14-0.29,1.53-0.06
			l8.52,4.92c0.39,0.23,0.34,0.62-0.11,0.88l-4.83,2.79C259.28,215.29,258.6,215.32,258.2,215.09z"/>
		<path class="st11" d="M275.68,233.65l-4.88-2.82c-0.39-0.23-0.34-0.62,0.11-0.88l4.83-2.79c0.45-0.26,1.14-0.29,1.53-0.06
			l4.88,2.82c0.39,0.23,0.34,0.62-0.11,0.88l-4.83,2.79C276.76,233.84,276.07,233.87,275.68,233.65z"/>
		<path class="st11" d="M283.21,237.99l-4.88-2.82c-0.39-0.23-0.34-0.62,0.11-0.88l4.83-2.79c0.45-0.26,1.14-0.29,1.53-0.06
			l4.88,2.82c0.39,0.23,0.34,0.62-0.11,0.88l-4.83,2.79C284.29,238.19,283.6,238.22,283.21,237.99z"/>
		<path class="st11" d="M290.74,242.34l-4.88-2.82c-0.39-0.23-0.34-0.62,0.11-0.88l4.83-2.79c0.45-0.26,1.14-0.29,1.53-0.06
			l4.88,2.82c0.39,0.23,0.34,0.62-0.11,0.88l-4.83,2.79C291.82,242.54,291.13,242.57,290.74,242.34z"/>
		<path class="st11" d="M298.27,246.69l-4.88-2.82c-0.39-0.23-0.34-0.62,0.11-0.88l4.83-2.79c0.45-0.26,1.14-0.29,1.53-0.06
			l4.88,2.82c0.39,0.23,0.34,0.62-0.11,0.88l-4.83,2.79C299.35,246.89,298.66,246.91,298.27,246.69z"/>
		<path class="st11" d="M305.8,251.04l-4.88-2.82c-0.39-0.23-0.34-0.62,0.11-0.88l4.83-2.79c0.45-0.26,1.14-0.29,1.53-0.06
			l4.88,2.82c0.39,0.23,0.34,0.62-0.11,0.88l-4.83,2.79C306.88,251.23,306.19,251.26,305.8,251.04z"/>
		<path class="st11" d="M313.33,255.38l-4.88-2.82c-0.39-0.23-0.34-0.62,0.11-0.88l4.83-2.79c0.45-0.26,1.14-0.29,1.53-0.06
			l4.88,2.82c0.39,0.23,0.34,0.62-0.11,0.88l-4.83,2.79C314.41,255.58,313.73,255.61,313.33,255.38z"/>
		<path class="st11" d="M320.86,259.73l-4.88-2.82c-0.39-0.23-0.34-0.62,0.11-0.88l4.83-2.79c0.45-0.26,1.14-0.29,1.53-0.06
			l4.88,2.82c0.39,0.23,0.34,0.62-0.11,0.88l-4.83,2.79C321.94,259.93,321.26,259.96,320.86,259.73z"/>
		<path class="st11" d="M328.39,264.08l-4.88-2.82c-0.39-0.23-0.34-0.62,0.11-0.88l4.83-2.79c0.45-0.26,1.14-0.29,1.53-0.06
			l4.88,2.82c0.39,0.23,0.34,0.62-0.11,0.88l-4.83,2.79C329.47,264.28,328.79,264.3,328.39,264.08z"/>
		<path class="st11" d="M335.92,268.43l-4.88-2.82c-0.39-0.23-0.34-0.62,0.11-0.88l4.83-2.79c0.45-0.26,1.14-0.29,1.53-0.06
			l4.88,2.82c0.39,0.23,0.34,0.62-0.11,0.88l-4.83,2.79C337,268.62,336.32,268.65,335.92,268.43z"/>
		<path class="st11" d="M349.31,276.16l-10.64-6.14c-0.39-0.23-0.34-0.62,0.11-0.88l4.83-2.79c0.45-0.26,1.14-0.29,1.53-0.06
			l10.64,6.14c0.39,0.23,0.34,0.62-0.11,0.88l-4.83,2.79C350.39,276.35,349.7,276.38,349.31,276.16z"/>
		<path class="st11" d="M363.97,267.69l-8.98-5.18c-0.39-0.23-0.34-0.62,0.11-0.88l4.83-2.79c0.45-0.26,1.14-0.29,1.53-0.06
			l8.98,5.18c0.39,0.23,0.34,0.62-0.11,0.88l-4.83,2.79C365.05,267.89,364.36,267.92,363.97,267.69z"/>
		<path class="st11" d="M288.87,232.79l-4.88-2.82c-0.39-0.23-0.34-0.62,0.11-0.88l4.83-2.79c0.45-0.26,1.14-0.29,1.53-0.06
			l4.88,2.82c0.39,0.23,0.34,0.62-0.11,0.88l-4.83,2.79C289.94,232.99,289.26,233.02,288.87,232.79z"/>
		<path class="st11" d="M281.15,228.34l-4.88-2.82c-0.39-0.23-0.34-0.62,0.11-0.88l4.83-2.79c0.45-0.26,1.14-0.29,1.53-0.06
			l4.88,2.82c0.39,0.23,0.34,0.62-0.11,0.88l-4.83,2.79C282.23,228.54,281.54,228.56,281.15,228.34z"/>
		<path class="st11" d="M273.43,223.88l-4.88-2.82c-0.39-0.23-0.34-0.62,0.11-0.88l4.83-2.79c0.45-0.26,1.14-0.29,1.53-0.06
			l4.88,2.82c0.39,0.23,0.34,0.62-0.11,0.88l-4.83,2.79C274.51,224.08,273.83,224.11,273.43,223.88z"/>
		<path class="st11" d="M265.72,219.43l-4.88-2.82c-0.39-0.23-0.34-0.62,0.11-0.88l4.83-2.79c0.45-0.26,1.14-0.29,1.53-0.06
			l4.88,2.82c0.39,0.23,0.34,0.62-0.11,0.88l-4.83,2.79C266.79,219.63,266.11,219.65,265.72,219.43z"/>
		<path class="st11" d="M296.4,237.14l-4.88-2.82c-0.39-0.23-0.34-0.62,0.11-0.88l4.83-2.79c0.45-0.26,1.14-0.29,1.53-0.06
			l4.88,2.82c0.39,0.23,0.34,0.62-0.11,0.88l-4.83,2.79C297.48,237.34,296.79,237.37,296.4,237.14z"/>
		<path class="st11" d="M303.93,241.49l-4.88-2.82c-0.39-0.23-0.34-0.62,0.11-0.88l4.83-2.79c0.45-0.26,1.14-0.29,1.53-0.06
			l4.88,2.82c0.39,0.23,0.34,0.62-0.11,0.88l-4.83,2.79C305.01,241.69,304.32,241.72,303.93,241.49z"/>
		<path class="st11" d="M311.46,245.84l-4.88-2.82c-0.39-0.23-0.34-0.62,0.11-0.88l4.83-2.79c0.45-0.26,1.14-0.29,1.53-0.06
			l4.88,2.82c0.39,0.23,0.34,0.62-0.11,0.88l-4.83,2.79C312.54,246.04,311.85,246.06,311.46,245.84z"/>
		<path class="st11" d="M318.99,250.18l-4.88-2.82c-0.39-0.23-0.34-0.62,0.11-0.88l4.83-2.79c0.45-0.26,1.14-0.29,1.53-0.06
			l4.88,2.82c0.39,0.23,0.34,0.62-0.11,0.88l-4.83,2.79C320.07,250.38,319.38,250.41,318.99,250.18z"/>
		<path class="st11" d="M326.52,254.53l-4.88-2.82c-0.39-0.23-0.34-0.62,0.11-0.88l4.83-2.79c0.45-0.26,1.14-0.29,1.53-0.06
			l4.88,2.82c0.39,0.23,0.34,0.62-0.11,0.88l-4.83,2.79C327.6,254.73,326.91,254.76,326.52,254.53z"/>
		<path class="st11" d="M334.05,258.88l-4.88-2.82c-0.39-0.23-0.34-0.62,0.11-0.88l4.83-2.79c0.45-0.26,1.14-0.29,1.53-0.06
			l4.88,2.82c0.39,0.23,0.34,0.62-0.11,0.88l-4.83,2.79C335.13,259.08,334.44,259.11,334.05,258.88z"/>
		<path class="st11" d="M341.58,263.23l-4.88-2.82c-0.39-0.23-0.34-0.62,0.11-0.88l4.83-2.79c0.45-0.26,1.14-0.29,1.53-0.06
			l4.88,2.82c0.39,0.23,0.34,0.62-0.11,0.88l-4.83,2.79C342.66,263.43,341.97,263.45,341.58,263.23z"/>
		<path class="st11" d="M349.11,267.58l-4.88-2.82c-0.39-0.23-0.34-0.62,0.11-0.88l4.83-2.79c0.45-0.26,1.14-0.29,1.53-0.06
			l4.88,2.82c0.39,0.23,0.34,0.62-0.11,0.88l-4.83,2.79C350.19,267.77,349.5,267.8,349.11,267.58z"/>
		<path class="st11" d="M356.64,271.92l-4.88-2.82c-0.39-0.23-0.34-0.62,0.11-0.88l4.83-2.79c0.45-0.26,1.14-0.29,1.53-0.06
			l4.88,2.82c0.39,0.23,0.34,0.62-0.11,0.88l-4.83,2.79C357.72,272.12,357.03,272.15,356.64,271.92z"/>
		<path class="st11" d="M284.9,222.04l-4.88-2.82c-0.39-0.23-0.34-0.62,0.11-0.88l4.83-2.79c0.45-0.26,1.14-0.29,1.53-0.06
			l4.88,2.82c0.39,0.23,0.34,0.62-0.11,0.88l-4.83,2.79C285.98,222.24,285.3,222.27,284.9,222.04z"/>
		<path class="st11" d="M277.41,217.72l-4.88-2.82c-0.39-0.23-0.34-0.62,0.11-0.88l4.83-2.79c0.45-0.26,1.14-0.29,1.53-0.06
			l4.88,2.82c0.39,0.23,0.34,0.62-0.11,0.88l-4.83,2.79C278.49,217.91,277.8,217.94,277.41,217.72z"/>
		<path class="st11" d="M269.92,213.39l-4.88-2.82c-0.39-0.23-0.34-0.62,0.11-0.88l4.83-2.79c0.45-0.26,1.14-0.29,1.53-0.06
			l4.88,2.82c0.39,0.23,0.34,0.62-0.11,0.88l-4.83,2.79C270.99,213.59,270.31,213.62,269.92,213.39z"/>
		<path class="st11" d="M262.43,209.06l-4.88-2.82c-0.39-0.23-0.34-0.62,0.11-0.88l4.83-2.79c0.45-0.26,1.14-0.29,1.53-0.06
			l4.88,2.82c0.39,0.23,0.34,0.62-0.11,0.88l-4.83,2.79C263.5,209.26,262.82,209.29,262.43,209.06z"/>
		<path class="st11" d="M270.13,204.61l-4.88-2.82c-0.39-0.23-0.34-0.62,0.11-0.88l1.6-0.92c0.45-0.26,1.14-0.29,1.53-0.06
			l4.88,2.82c0.39,0.23,0.34,0.62-0.11,0.88l-1.6,0.92C271.21,204.81,270.52,204.84,270.13,204.61z"/>
		<path class="st11" d="M279.91,210.26l-4.88-2.82c-0.39-0.23-0.34-0.62,0.11-0.88l1.6-0.92c0.45-0.26,1.14-0.29,1.53-0.06
			l4.88,2.82c0.39,0.23,0.34,0.62-0.11,0.88l-1.6,0.92C280.98,210.46,280.3,210.49,279.91,210.26z"/>
		<path class="st11" d="M287.37,214.57l-4.88-2.82c-0.39-0.23-0.34-0.62,0.11-0.88l1.6-0.92c0.45-0.26,1.14-0.29,1.53-0.06
			l4.88,2.82c0.39,0.23,0.34,0.62-0.11,0.88l-1.6,0.92C288.45,214.77,287.76,214.79,287.37,214.57z"/>
		<path class="st11" d="M294.83,218.88l-4.88-2.82c-0.39-0.23-0.34-0.62,0.11-0.88l1.6-0.92c0.45-0.26,1.14-0.29,1.53-0.06
			l4.88,2.82c0.39,0.23,0.34,0.62-0.11,0.88l-1.6,0.92C295.91,219.07,295.22,219.1,294.83,218.88z"/>
		<path class="st11" d="M302.29,223.18l-4.88-2.82c-0.39-0.23-0.34-0.62,0.11-0.88l1.6-0.92c0.45-0.26,1.14-0.29,1.53-0.06
			l4.88,2.82c0.39,0.23,0.34,0.62-0.11,0.88l-1.6,0.92C303.37,223.38,302.68,223.41,302.29,223.18z"/>
		<path class="st11" d="M343.95,247.23l-4.88-2.82c-0.39-0.23-0.34-0.62,0.11-0.88l1.6-0.92c0.45-0.26,1.14-0.29,1.53-0.06
			l4.88,2.82c0.39,0.23,0.34,0.62-0.11,0.88l-1.6,0.92C345.03,247.43,344.34,247.46,343.95,247.23z"/>
		<path class="st11" d="M351.41,251.54l-4.88-2.82c-0.39-0.23-0.34-0.62,0.11-0.88l1.6-0.92c0.45-0.26,1.14-0.29,1.53-0.06
			l4.88,2.82c0.39,0.23,0.34,0.62-0.11,0.88l-1.6,0.92C352.49,251.74,351.8,251.77,351.41,251.54z"/>
		<path class="st11" d="M358.87,255.85l-4.88-2.82c-0.39-0.23-0.34-0.62,0.11-0.88l1.6-0.92c0.45-0.26,1.14-0.29,1.53-0.06
			l4.88,2.82c0.39,0.23,0.34,0.62-0.11,0.88l-1.6,0.92C359.95,256.05,359.26,256.08,358.87,255.85z"/>
		<path class="st11" d="M366.34,260.16l-4.88-2.82c-0.39-0.23-0.34-0.62,0.11-0.88l1.6-0.92c0.45-0.26,1.14-0.29,1.53-0.06
			l4.88,2.82c0.39,0.23,0.34,0.62-0.11,0.88l-1.6,0.92C367.41,260.36,366.73,260.38,366.34,260.16z"/>
		<path class="st11" d="M292.43,226.39l-4.88-2.82c-0.39-0.23-0.34-0.62,0.11-0.88l4.83-2.79c0.45-0.26,1.14-0.29,1.53-0.06
			l4.88,2.82c0.39,0.23,0.34,0.62-0.11,0.88l-4.83,2.79C293.51,226.59,292.83,226.61,292.43,226.39z"/>
		<path class="st11" d="M299.96,230.74l-4.88-2.82c-0.39-0.23-0.34-0.62,0.11-0.88l4.83-2.79c0.45-0.26,1.14-0.29,1.53-0.06
			l4.88,2.82c0.39,0.23,0.34,0.62-0.11,0.88l-4.83,2.79C301.04,230.93,300.36,230.96,299.96,230.74z"/>
		<path class="st11" d="M307.49,235.08l-4.88-2.82c-0.39-0.23-0.34-0.62,0.11-0.88l4.83-2.79c0.45-0.26,1.14-0.29,1.53-0.06
			l4.88,2.82c0.39,0.23,0.34,0.62-0.11,0.88l-4.83,2.79C308.57,235.28,307.89,235.31,307.49,235.08z"/>
		<path class="st11" d="M315.03,239.43l-4.88-2.82c-0.39-0.23-0.34-0.62,0.11-0.88l4.83-2.79c0.45-0.26,1.14-0.29,1.53-0.06
			l4.88,2.82c0.39,0.23,0.34,0.62-0.11,0.88l-4.83,2.79C316.1,239.63,315.42,239.66,315.03,239.43z"/>
		<path class="st11" d="M322.56,243.78l-4.88-2.82c-0.39-0.23-0.34-0.62,0.11-0.88l4.83-2.79c0.45-0.26,1.14-0.29,1.53-0.06
			l4.88,2.82c0.39,0.23,0.34,0.62-0.11,0.88l-4.83,2.79C323.63,243.98,322.95,244.01,322.56,243.78z"/>
		<path class="st11" d="M330.09,248.13l-4.88-2.82c-0.39-0.23-0.34-0.62,0.11-0.88l4.83-2.79c0.45-0.26,1.14-0.29,1.53-0.06
			l4.88,2.82c0.39,0.23,0.34,0.62-0.11,0.88l-4.83,2.79C331.16,248.32,330.48,248.35,330.09,248.13z"/>
		<path class="st11" d="M337.62,252.47l-4.88-2.82c-0.39-0.23-0.34-0.62,0.11-0.88l4.83-2.79c0.45-0.26,1.14-0.29,1.53-0.06
			l4.88,2.82c0.39,0.23,0.34,0.62-0.11,0.88l-4.83,2.79C338.69,252.67,338.01,252.7,337.62,252.47z"/>
		<path class="st11" d="M345.15,256.82l-4.88-2.82c-0.39-0.23-0.34-0.62,0.11-0.88l4.83-2.79c0.45-0.26,1.14-0.29,1.53-0.06
			l4.88,2.82c0.39,0.23,0.34,0.62-0.11,0.88l-4.83,2.79C346.22,257.02,345.54,257.05,345.15,256.82z"/>
		<path class="st11" d="M352.68,261.17l-4.88-2.82c-0.39-0.23-0.34-0.62,0.11-0.88l4.83-2.79c0.45-0.26,1.14-0.29,1.53-0.06
			l4.88,2.82c0.39,0.23,0.34,0.62-0.11,0.88l-4.83,2.79C353.75,261.37,353.07,261.4,352.68,261.17z"/>
		<path class="st11" d="M249.38,226.93l-14.36-8.29c-0.39-0.23-0.34-0.62,0.11-0.88l4.83-2.79c0.45-0.26,1.14-0.29,1.53-0.06
			l14.36,8.29c0.39,0.23,0.34,0.62-0.11,0.88l-4.83,2.79C250.46,227.12,249.77,227.15,249.38,226.93z"/>
		<path class="st11" d="M341.89,280.34l-14.36-8.29c-0.39-0.23-0.34-0.62,0.11-0.88l4.83-2.79c0.45-0.26,1.14-0.29,1.53-0.06
			l14.36,8.29c0.39,0.23,0.34,0.62-0.11,0.88l-4.83,2.79C342.97,280.53,342.29,280.56,341.89,280.34z"/>
		<path class="st11" d="M311.78,272.55l-4.88-2.82c-0.39-0.23-0.34-0.62,0.11-0.88l5.76-3.32c0.45-0.26,1.14-0.29,1.53-0.06
			l4.88,2.82c0.39,0.23,0.34,0.62-0.11,0.88l-5.76,3.32C312.85,272.75,312.17,272.78,311.78,272.55z"/>
		<path class="st11" d="M257.09,240.98l-7.8-4.5c-0.39-0.23-0.34-0.62,0.11-0.88l5.76-3.32c0.45-0.26,1.14-0.29,1.53-0.06l7.8,4.5
			c0.39,0.23,0.34,0.62-0.11,0.88l-5.76,3.32C258.17,241.18,257.49,241.21,257.09,240.98z"/>
		<path class="st11" d="M304.52,268.36l-7.8-4.5c-0.39-0.23-0.34-0.62,0.11-0.88l5.76-3.32c0.45-0.26,1.14-0.29,1.53-0.06l7.8,4.5
			c0.39,0.23,0.34,0.62-0.11,0.88l-5.76,3.32C305.6,268.56,304.92,268.59,304.52,268.36z"/>
		<path class="st11" d="M267.96,247.25l-7.8-4.5c-0.39-0.23-0.34-0.62,0.11-0.88l5.76-3.32c0.45-0.26,1.14-0.29,1.53-0.06l7.8,4.5
			c0.39,0.23,0.34,0.62-0.11,0.88l-5.76,3.32C269.03,247.45,268.35,247.48,267.96,247.25z"/>
		<path class="st11" d="M267.61,238.51l33.9,19.58c0.42,0.24,0.42,0.64,0,0.88l-5.87,3.39c-0.42,0.24-1.1,0.24-1.52,0l-33.9-19.57
			L267.61,238.51z"/>
		<path class="st11" d="M332.83,280.44l5.43,3.14c0.32,0.19,0.28,0.51-0.09,0.72l-2.35,1.36c-0.37,0.21-0.93,0.24-1.25,0.05
			l-5.43-3.14c-0.32-0.19-0.28-0.51,0.09-0.72l2.35-1.36C331.94,280.27,332.5,280.25,332.83,280.44z"/>
		<path class="st11" d="M325.23,276.05l5.43,3.14c0.32,0.19,0.28,0.51-0.09,0.72l-2.35,1.36c-0.37,0.21-0.93,0.24-1.25,0.05
			l-5.43-3.14c-0.32-0.19-0.28-0.51,0.09-0.72l2.35-1.36C324.35,275.89,324.91,275.87,325.23,276.05z"/>
		<path class="st11" d="M317.7,271.7l5.43,3.14c0.32,0.19,0.28,0.51-0.09,0.72l-2.35,1.36c-0.37,0.21-0.93,0.24-1.25,0.05
			l-5.43-3.14c-0.32-0.19-0.28-0.51,0.09-0.72l2.35-1.36C316.82,271.54,317.38,271.52,317.7,271.7z"/>
		<path class="st11" d="M329.39,273.65l5.43,3.14c0.32,0.19,0.28,0.51-0.09,0.72l-2.35,1.36c-0.37,0.21-0.93,0.24-1.25,0.05
			l-5.43-3.14c-0.32-0.19-0.28-0.51,0.09-0.72l2.35-1.36C328.51,273.49,329.07,273.47,329.39,273.65z"/>
	</g>
	<g class="st10">
		<path class="st11" d="M231.58,226.25l-4.88-2.82c-0.39-0.23-0.34-0.62,0.11-0.88l5.76-3.32c0.45-0.26,1.14-0.29,1.53-0.06
			l4.88,2.82c0.39,0.23,0.34,0.62-0.11,0.88l-5.76,3.32C232.66,226.45,231.97,226.48,231.58,226.25z"/>
		<path class="st11" d="M239.11,230.6l-4.88-2.82c-0.39-0.23-0.34-0.62,0.11-0.88l5.76-3.32c0.45-0.26,1.14-0.29,1.53-0.06
			l4.88,2.82c0.39,0.23,0.34,0.62-0.11,0.88l-5.76,3.32C240.19,230.8,239.5,230.82,239.11,230.6z"/>
		<path class="st11" d="M246.64,234.95l-4.88-2.82c-0.39-0.23-0.34-0.62,0.11-0.88l5.76-3.32c0.45-0.26,1.14-0.29,1.53-0.06
			l4.88,2.82c0.39,0.23,0.34,0.62-0.11,0.88l-5.76,3.32C247.72,235.14,247.03,235.17,246.64,234.95z"/>
		<path class="st11" d="M257.06,231.36l-4.88-2.82c-0.39-0.23-0.34-0.62,0.11-0.88l4.83-2.79c0.45-0.26,1.14-0.29,1.53-0.06
			l4.88,2.82c0.39,0.23,0.34,0.62-0.11,0.88l-4.83,2.79C258.13,231.55,257.45,231.58,257.06,231.36z"/>
		<path class="st11" d="M264.59,235.7l-4.88-2.82c-0.39-0.23-0.34-0.62,0.11-0.88l4.83-2.79c0.45-0.26,1.14-0.29,1.53-0.06
			l4.88,2.82c0.39,0.23,0.34,0.62-0.11,0.88l-4.83,2.79C265.66,235.9,264.98,235.93,264.59,235.7z"/>
		<path class="st11" d="M272.12,240.05l-4.88-2.82c-0.39-0.23-0.34-0.62,0.11-0.88l4.83-2.79c0.45-0.26,1.14-0.29,1.53-0.06
			l4.88,2.82c0.39,0.23,0.34,0.62-0.11,0.88l-4.83,2.79C273.19,240.25,272.51,240.28,272.12,240.05z"/>
		<path class="st11" d="M279.65,244.4l-4.88-2.82c-0.39-0.23-0.34-0.62,0.11-0.88l4.83-2.79c0.45-0.26,1.14-0.29,1.53-0.06
			l4.88,2.82c0.39,0.23,0.34,0.62-0.11,0.88l-4.83,2.79C280.72,244.6,280.04,244.62,279.65,244.4z"/>
		<path class="st11" d="M287.18,248.75l-4.88-2.82c-0.39-0.23-0.34-0.62,0.11-0.88l4.83-2.79c0.45-0.26,1.14-0.29,1.53-0.06
			l4.88,2.82c0.39,0.23,0.34,0.62-0.11,0.88l-4.83,2.79C288.25,248.94,287.57,248.97,287.18,248.75z"/>
		<path class="st11" d="M294.71,253.09l-4.88-2.82c-0.39-0.23-0.34-0.62,0.11-0.88l4.83-2.79c0.45-0.26,1.14-0.29,1.53-0.06
			l4.88,2.82c0.39,0.23,0.34,0.62-0.11,0.88l-4.83,2.79C295.78,253.29,295.1,253.32,294.71,253.09z"/>
		<path class="st11" d="M302.24,257.44l-4.88-2.82c-0.39-0.23-0.34-0.62,0.11-0.88l4.83-2.79c0.45-0.26,1.14-0.29,1.53-0.06
			l4.88,2.82c0.39,0.23,0.34,0.62-0.11,0.88l-4.83,2.79C303.31,257.64,302.63,257.67,302.24,257.44z"/>
		<path class="st11" d="M309.77,261.79l-4.88-2.82c-0.39-0.23-0.34-0.62,0.11-0.88l4.83-2.79c0.45-0.26,1.14-0.29,1.53-0.06
			l4.88,2.82c0.39,0.23,0.34,0.62-0.11,0.88l-4.83,2.79C310.84,261.99,310.16,262.02,309.77,261.79z"/>
		<path class="st11" d="M317.3,266.14l-4.88-2.82c-0.39-0.23-0.34-0.62,0.11-0.88l4.83-2.79c0.45-0.26,1.14-0.29,1.53-0.06
			l4.88,2.82c0.39,0.23,0.34,0.62-0.11,0.88l-4.83,2.79C318.37,266.33,317.69,266.36,317.3,266.14z"/>
		<path class="st11" d="M324.83,270.48l-4.88-2.82c-0.39-0.23-0.34-0.62,0.11-0.88l4.83-2.79c0.45-0.26,1.14-0.29,1.53-0.06
			l4.88,2.82c0.39,0.23,0.34,0.62-0.11,0.88l-4.83,2.79C325.9,270.68,325.22,270.71,324.83,270.48z"/>
		<path class="st11" d="M268.15,229.3l-4.88-2.82c-0.39-0.23-0.34-0.62,0.11-0.88l4.83-2.79c0.45-0.26,1.14-0.29,1.53-0.06
			l4.88,2.82c0.39,0.23,0.34,0.62-0.11,0.88l-4.83,2.79C269.23,229.5,268.54,229.52,268.15,229.3z"/>
		<path class="st11" d="M260.51,224.89l-4.88-2.82c-0.39-0.23-0.34-0.62,0.11-0.88l4.83-2.79c0.45-0.26,1.14-0.29,1.53-0.06
			l4.88,2.82c0.39,0.23,0.34,0.62-0.11,0.88l-4.83,2.79C261.58,225.08,260.9,225.11,260.51,224.89z"/>
		<path class="st11" d="M252.85,220.47l-10.5-6.06c-0.39-0.23-0.34-0.62,0.11-0.88l4.83-2.79c0.45-0.26,1.14-0.29,1.53-0.06
			l10.5,6.06c0.39,0.23,0.34,0.62-0.11,0.88l-4.83,2.79C253.93,220.66,253.25,220.69,252.85,220.47z"/>
		<path class="st11" d="M258.2,215.09l-8.52-4.92c-0.39-0.23-0.34-0.62,0.11-0.88l4.83-2.79c0.45-0.26,1.14-0.29,1.53-0.06
			l8.52,4.92c0.39,0.23,0.34,0.62-0.11,0.88l-4.83,2.79C259.28,215.29,258.6,215.32,258.2,215.09z"/>
		<path class="st11" d="M275.68,233.65l-4.88-2.82c-0.39-0.23-0.34-0.62,0.11-0.88l4.83-2.79c0.45-0.26,1.14-0.29,1.53-0.06
			l4.88,2.82c0.39,0.23,0.34,0.62-0.11,0.88l-4.83,2.79C276.76,233.84,276.07,233.87,275.68,233.65z"/>
		<path class="st11" d="M283.21,237.99l-4.88-2.82c-0.39-0.23-0.34-0.62,0.11-0.88l4.83-2.79c0.45-0.26,1.14-0.29,1.53-0.06
			l4.88,2.82c0.39,0.23,0.34,0.62-0.11,0.88l-4.83,2.79C284.29,238.19,283.6,238.22,283.21,237.99z"/>
		<path class="st11" d="M290.74,242.34l-4.88-2.82c-0.39-0.23-0.34-0.62,0.11-0.88l4.83-2.79c0.45-0.26,1.14-0.29,1.53-0.06
			l4.88,2.82c0.39,0.23,0.34,0.62-0.11,0.88l-4.83,2.79C291.82,242.54,291.13,242.57,290.74,242.34z"/>
		<path class="st11" d="M298.27,246.69l-4.88-2.82c-0.39-0.23-0.34-0.62,0.11-0.88l4.83-2.79c0.45-0.26,1.14-0.29,1.53-0.06
			l4.88,2.82c0.39,0.23,0.34,0.62-0.11,0.88l-4.83,2.79C299.35,246.89,298.66,246.91,298.27,246.69z"/>
		<path class="st11" d="M305.8,251.04l-4.88-2.82c-0.39-0.23-0.34-0.62,0.11-0.88l4.83-2.79c0.45-0.26,1.14-0.29,1.53-0.06
			l4.88,2.82c0.39,0.23,0.34,0.62-0.11,0.88l-4.83,2.79C306.88,251.23,306.19,251.26,305.8,251.04z"/>
		<path class="st11" d="M313.33,255.38l-4.88-2.82c-0.39-0.23-0.34-0.62,0.11-0.88l4.83-2.79c0.45-0.26,1.14-0.29,1.53-0.06
			l4.88,2.82c0.39,0.23,0.34,0.62-0.11,0.88l-4.83,2.79C314.41,255.58,313.73,255.61,313.33,255.38z"/>
		<path class="st11" d="M320.86,259.73l-4.88-2.82c-0.39-0.23-0.34-0.62,0.11-0.88l4.83-2.79c0.45-0.26,1.14-0.29,1.53-0.06
			l4.88,2.82c0.39,0.23,0.34,0.62-0.11,0.88l-4.83,2.79C321.94,259.93,321.26,259.96,320.86,259.73z"/>
		<path class="st11" d="M328.39,264.08l-4.88-2.82c-0.39-0.23-0.34-0.62,0.11-0.88l4.83-2.79c0.45-0.26,1.14-0.29,1.53-0.06
			l4.88,2.82c0.39,0.23,0.34,0.62-0.11,0.88l-4.83,2.79C329.47,264.28,328.79,264.3,328.39,264.08z"/>
		<path class="st11" d="M335.92,268.43l-4.88-2.82c-0.39-0.23-0.34-0.62,0.11-0.88l4.83-2.79c0.45-0.26,1.14-0.29,1.53-0.06
			l4.88,2.82c0.39,0.23,0.34,0.62-0.11,0.88l-4.83,2.79C337,268.62,336.32,268.65,335.92,268.43z"/>
		<path class="st11" d="M349.31,276.16l-10.64-6.14c-0.39-0.23-0.34-0.62,0.11-0.88l4.83-2.79c0.45-0.26,1.14-0.29,1.53-0.06
			l10.64,6.14c0.39,0.23,0.34,0.62-0.11,0.88l-4.83,2.79C350.39,276.35,349.7,276.38,349.31,276.16z"/>
		<path class="st11" d="M363.97,267.69l-8.98-5.18c-0.39-0.23-0.34-0.62,0.11-0.88l4.83-2.79c0.45-0.26,1.14-0.29,1.53-0.06
			l8.98,5.18c0.39,0.23,0.34,0.62-0.11,0.88l-4.83,2.79C365.05,267.89,364.36,267.92,363.97,267.69z"/>
		<path class="st11" d="M288.87,232.79l-4.88-2.82c-0.39-0.23-0.34-0.62,0.11-0.88l4.83-2.79c0.45-0.26,1.14-0.29,1.53-0.06
			l4.88,2.82c0.39,0.23,0.34,0.62-0.11,0.88l-4.83,2.79C289.94,232.99,289.26,233.02,288.87,232.79z"/>
		<path class="st11" d="M281.15,228.34l-4.88-2.82c-0.39-0.23-0.34-0.62,0.11-0.88l4.83-2.79c0.45-0.26,1.14-0.29,1.53-0.06
			l4.88,2.82c0.39,0.23,0.34,0.62-0.11,0.88l-4.83,2.79C282.23,228.54,281.54,228.56,281.15,228.34z"/>
		<path class="st11" d="M273.43,223.88l-4.88-2.82c-0.39-0.23-0.34-0.62,0.11-0.88l4.83-2.79c0.45-0.26,1.14-0.29,1.53-0.06
			l4.88,2.82c0.39,0.23,0.34,0.62-0.11,0.88l-4.83,2.79C274.51,224.08,273.83,224.11,273.43,223.88z"/>
		<path class="st11" d="M265.72,219.43l-4.88-2.82c-0.39-0.23-0.34-0.62,0.11-0.88l4.83-2.79c0.45-0.26,1.14-0.29,1.53-0.06
			l4.88,2.82c0.39,0.23,0.34,0.62-0.11,0.88l-4.83,2.79C266.79,219.63,266.11,219.65,265.72,219.43z"/>
		<path class="st11" d="M296.4,237.14l-4.88-2.82c-0.39-0.23-0.34-0.62,0.11-0.88l4.83-2.79c0.45-0.26,1.14-0.29,1.53-0.06
			l4.88,2.82c0.39,0.23,0.34,0.62-0.11,0.88l-4.83,2.79C297.48,237.34,296.79,237.37,296.4,237.14z"/>
		<path class="st11" d="M303.93,241.49l-4.88-2.82c-0.39-0.23-0.34-0.62,0.11-0.88l4.83-2.79c0.45-0.26,1.14-0.29,1.53-0.06
			l4.88,2.82c0.39,0.23,0.34,0.62-0.11,0.88l-4.83,2.79C305.01,241.69,304.32,241.72,303.93,241.49z"/>
		<path class="st11" d="M311.46,245.84l-4.88-2.82c-0.39-0.23-0.34-0.62,0.11-0.88l4.83-2.79c0.45-0.26,1.14-0.29,1.53-0.06
			l4.88,2.82c0.39,0.23,0.34,0.62-0.11,0.88l-4.83,2.79C312.54,246.04,311.85,246.06,311.46,245.84z"/>
		<path class="st11" d="M318.99,250.18l-4.88-2.82c-0.39-0.23-0.34-0.62,0.11-0.88l4.83-2.79c0.45-0.26,1.14-0.29,1.53-0.06
			l4.88,2.82c0.39,0.23,0.34,0.62-0.11,0.88l-4.83,2.79C320.07,250.38,319.38,250.41,318.99,250.18z"/>
		<path class="st11" d="M326.52,254.53l-4.88-2.82c-0.39-0.23-0.34-0.62,0.11-0.88l4.83-2.79c0.45-0.26,1.14-0.29,1.53-0.06
			l4.88,2.82c0.39,0.23,0.34,0.62-0.11,0.88l-4.83,2.79C327.6,254.73,326.91,254.76,326.52,254.53z"/>
		<path class="st11" d="M334.05,258.88l-4.88-2.82c-0.39-0.23-0.34-0.62,0.11-0.88l4.83-2.79c0.45-0.26,1.14-0.29,1.53-0.06
			l4.88,2.82c0.39,0.23,0.34,0.62-0.11,0.88l-4.83,2.79C335.13,259.08,334.44,259.11,334.05,258.88z"/>
		<path class="st11" d="M341.58,263.23l-4.88-2.82c-0.39-0.23-0.34-0.62,0.11-0.88l4.83-2.79c0.45-0.26,1.14-0.29,1.53-0.06
			l4.88,2.82c0.39,0.23,0.34,0.62-0.11,0.88l-4.83,2.79C342.66,263.43,341.97,263.45,341.58,263.23z"/>
		<path class="st11" d="M349.11,267.58l-4.88-2.82c-0.39-0.23-0.34-0.62,0.11-0.88l4.83-2.79c0.45-0.26,1.14-0.29,1.53-0.06
			l4.88,2.82c0.39,0.23,0.34,0.62-0.11,0.88l-4.83,2.79C350.19,267.77,349.5,267.8,349.11,267.58z"/>
		<path class="st11" d="M356.64,271.92l-4.88-2.82c-0.39-0.23-0.34-0.62,0.11-0.88l4.83-2.79c0.45-0.26,1.14-0.29,1.53-0.06
			l4.88,2.82c0.39,0.23,0.34,0.62-0.11,0.88l-4.83,2.79C357.72,272.12,357.03,272.15,356.64,271.92z"/>
		<path class="st11" d="M284.9,222.04l-4.88-2.82c-0.39-0.23-0.34-0.62,0.11-0.88l4.83-2.79c0.45-0.26,1.14-0.29,1.53-0.06
			l4.88,2.82c0.39,0.23,0.34,0.62-0.11,0.88l-4.83,2.79C285.98,222.24,285.3,222.27,284.9,222.04z"/>
		<path class="st11" d="M277.41,217.72l-4.88-2.82c-0.39-0.23-0.34-0.62,0.11-0.88l4.83-2.79c0.45-0.26,1.14-0.29,1.53-0.06
			l4.88,2.82c0.39,0.23,0.34,0.62-0.11,0.88l-4.83,2.79C278.49,217.91,277.8,217.94,277.41,217.72z"/>
		<path class="st11" d="M269.92,213.39l-4.88-2.82c-0.39-0.23-0.34-0.62,0.11-0.88l4.83-2.79c0.45-0.26,1.14-0.29,1.53-0.06
			l4.88,2.82c0.39,0.23,0.34,0.62-0.11,0.88l-4.83,2.79C270.99,213.59,270.31,213.62,269.92,213.39z"/>
		<path class="st11" d="M262.43,209.06l-4.88-2.82c-0.39-0.23-0.34-0.62,0.11-0.88l4.83-2.79c0.45-0.26,1.14-0.29,1.53-0.06
			l4.88,2.82c0.39,0.23,0.34,0.62-0.11,0.88l-4.83,2.79C263.5,209.26,262.82,209.29,262.43,209.06z"/>
		<path class="st11" d="M270.13,204.61l-4.88-2.82c-0.39-0.23-0.34-0.62,0.11-0.88l1.6-0.92c0.45-0.26,1.14-0.29,1.53-0.06
			l4.88,2.82c0.39,0.23,0.34,0.62-0.11,0.88l-1.6,0.92C271.21,204.81,270.52,204.84,270.13,204.61z"/>
		<path class="st11" d="M279.91,210.26l-4.88-2.82c-0.39-0.23-0.34-0.62,0.11-0.88l1.6-0.92c0.45-0.26,1.14-0.29,1.53-0.06
			l4.88,2.82c0.39,0.23,0.34,0.62-0.11,0.88l-1.6,0.92C280.98,210.46,280.3,210.49,279.91,210.26z"/>
		<path class="st11" d="M287.37,214.57l-4.88-2.82c-0.39-0.23-0.34-0.62,0.11-0.88l1.6-0.92c0.45-0.26,1.14-0.29,1.53-0.06
			l4.88,2.82c0.39,0.23,0.34,0.62-0.11,0.88l-1.6,0.92C288.45,214.77,287.76,214.79,287.37,214.57z"/>
		<path class="st11" d="M294.83,218.88l-4.88-2.82c-0.39-0.23-0.34-0.62,0.11-0.88l1.6-0.92c0.45-0.26,1.14-0.29,1.53-0.06
			l4.88,2.82c0.39,0.23,0.34,0.62-0.11,0.88l-1.6,0.92C295.91,219.07,295.22,219.1,294.83,218.88z"/>
		<path class="st11" d="M302.29,223.18l-4.88-2.82c-0.39-0.23-0.34-0.62,0.11-0.88l1.6-0.92c0.45-0.26,1.14-0.29,1.53-0.06
			l4.88,2.82c0.39,0.23,0.34,0.62-0.11,0.88l-1.6,0.92C303.37,223.38,302.68,223.41,302.29,223.18z"/>
		<path class="st11" d="M343.95,247.23l-4.88-2.82c-0.39-0.23-0.34-0.62,0.11-0.88l1.6-0.92c0.45-0.26,1.14-0.29,1.53-0.06
			l4.88,2.82c0.39,0.23,0.34,0.62-0.11,0.88l-1.6,0.92C345.03,247.43,344.34,247.46,343.95,247.23z"/>
		<path class="st11" d="M351.41,251.54l-4.88-2.82c-0.39-0.23-0.34-0.62,0.11-0.88l1.6-0.92c0.45-0.26,1.14-0.29,1.53-0.06
			l4.88,2.82c0.39,0.23,0.34,0.62-0.11,0.88l-1.6,0.92C352.49,251.74,351.8,251.77,351.41,251.54z"/>
		<path class="st11" d="M358.87,255.85l-4.88-2.82c-0.39-0.23-0.34-0.62,0.11-0.88l1.6-0.92c0.45-0.26,1.14-0.29,1.53-0.06
			l4.88,2.82c0.39,0.23,0.34,0.62-0.11,0.88l-1.6,0.92C359.95,256.05,359.26,256.08,358.87,255.85z"/>
		<path class="st11" d="M366.34,260.16l-4.88-2.82c-0.39-0.23-0.34-0.62,0.11-0.88l1.6-0.92c0.45-0.26,1.14-0.29,1.53-0.06
			l4.88,2.82c0.39,0.23,0.34,0.62-0.11,0.88l-1.6,0.92C367.41,260.36,366.73,260.38,366.34,260.16z"/>
		<path class="st11" d="M292.43,226.39l-4.88-2.82c-0.39-0.23-0.34-0.62,0.11-0.88l4.83-2.79c0.45-0.26,1.14-0.29,1.53-0.06
			l4.88,2.82c0.39,0.23,0.34,0.62-0.11,0.88l-4.83,2.79C293.51,226.59,292.83,226.61,292.43,226.39z"/>
		<path class="st11" d="M299.96,230.74l-4.88-2.82c-0.39-0.23-0.34-0.62,0.11-0.88l4.83-2.79c0.45-0.26,1.14-0.29,1.53-0.06
			l4.88,2.82c0.39,0.23,0.34,0.62-0.11,0.88l-4.83,2.79C301.04,230.93,300.36,230.96,299.96,230.74z"/>
		<path class="st11" d="M307.49,235.08l-4.88-2.82c-0.39-0.23-0.34-0.62,0.11-0.88l4.83-2.79c0.45-0.26,1.14-0.29,1.53-0.06
			l4.88,2.82c0.39,0.23,0.34,0.62-0.11,0.88l-4.83,2.79C308.57,235.28,307.89,235.31,307.49,235.08z"/>
		<path class="st11" d="M315.03,239.43l-4.88-2.82c-0.39-0.23-0.34-0.62,0.11-0.88l4.83-2.79c0.45-0.26,1.14-0.29,1.53-0.06
			l4.88,2.82c0.39,0.23,0.34,0.62-0.11,0.88l-4.83,2.79C316.1,239.63,315.42,239.66,315.03,239.43z"/>
		<path class="st11" d="M322.56,243.78l-4.88-2.82c-0.39-0.23-0.34-0.62,0.11-0.88l4.83-2.79c0.45-0.26,1.14-0.29,1.53-0.06
			l4.88,2.82c0.39,0.23,0.34,0.62-0.11,0.88l-4.83,2.79C323.63,243.98,322.95,244.01,322.56,243.78z"/>
		<path class="st11" d="M330.09,248.13l-4.88-2.82c-0.39-0.23-0.34-0.62,0.11-0.88l4.83-2.79c0.45-0.26,1.14-0.29,1.53-0.06
			l4.88,2.82c0.39,0.23,0.34,0.62-0.11,0.88l-4.83,2.79C331.16,248.32,330.48,248.35,330.09,248.13z"/>
		<path class="st11" d="M337.62,252.47l-4.88-2.82c-0.39-0.23-0.34-0.62,0.11-0.88l4.83-2.79c0.45-0.26,1.14-0.29,1.53-0.06
			l4.88,2.82c0.39,0.23,0.34,0.62-0.11,0.88l-4.83,2.79C338.69,252.67,338.01,252.7,337.62,252.47z"/>
		<path class="st11" d="M345.15,256.82l-4.88-2.82c-0.39-0.23-0.34-0.62,0.11-0.88l4.83-2.79c0.45-0.26,1.14-0.29,1.53-0.06
			l4.88,2.82c0.39,0.23,0.34,0.62-0.11,0.88l-4.83,2.79C346.22,257.02,345.54,257.05,345.15,256.82z"/>
		<path class="st11" d="M352.68,261.17l-4.88-2.82c-0.39-0.23-0.34-0.62,0.11-0.88l4.83-2.79c0.45-0.26,1.14-0.29,1.53-0.06
			l4.88,2.82c0.39,0.23,0.34,0.62-0.11,0.88l-4.83,2.79C353.75,261.37,353.07,261.4,352.68,261.17z"/>
		<path class="st11" d="M249.38,226.93l-14.36-8.29c-0.39-0.23-0.34-0.62,0.11-0.88l4.83-2.79c0.45-0.26,1.14-0.29,1.53-0.06
			l14.36,8.29c0.39,0.23,0.34,0.62-0.11,0.88l-4.83,2.79C250.46,227.12,249.77,227.15,249.38,226.93z"/>
		<path class="st11" d="M341.89,280.34l-14.36-8.29c-0.39-0.23-0.34-0.62,0.11-0.88l4.83-2.79c0.45-0.26,1.14-0.29,1.53-0.06
			l14.36,8.29c0.39,0.23,0.34,0.62-0.11,0.88l-4.83,2.79C342.97,280.53,342.29,280.56,341.89,280.34z"/>
		<path class="st11" d="M311.78,272.55l-4.88-2.82c-0.39-0.23-0.34-0.62,0.11-0.88l5.76-3.32c0.45-0.26,1.14-0.29,1.53-0.06
			l4.88,2.82c0.39,0.23,0.34,0.62-0.11,0.88l-5.76,3.32C312.85,272.75,312.17,272.78,311.78,272.55z"/>
		<path class="st11" d="M257.09,240.98l-7.8-4.5c-0.39-0.23-0.34-0.62,0.11-0.88l5.76-3.32c0.45-0.26,1.14-0.29,1.53-0.06l7.8,4.5
			c0.39,0.23,0.34,0.62-0.11,0.88l-5.76,3.32C258.17,241.18,257.49,241.21,257.09,240.98z"/>
		<path class="st11" d="M304.52,268.36l-7.8-4.5c-0.39-0.23-0.34-0.62,0.11-0.88l5.76-3.32c0.45-0.26,1.14-0.29,1.53-0.06l7.8,4.5
			c0.39,0.23,0.34,0.62-0.11,0.88l-5.76,3.32C305.6,268.56,304.92,268.59,304.52,268.36z"/>
		<path class="st11" d="M267.96,247.25l-7.8-4.5c-0.39-0.23-0.34-0.62,0.11-0.88l5.76-3.32c0.45-0.26,1.14-0.29,1.53-0.06l7.8,4.5
			c0.39,0.23,0.34,0.62-0.11,0.88l-5.76,3.32C269.03,247.45,268.35,247.48,267.96,247.25z"/>
		<path class="st11" d="M267.61,238.51l33.9,19.58c0.42,0.24,0.42,0.64,0,0.88l-5.87,3.39c-0.42,0.24-1.1,0.24-1.52,0l-33.9-19.57
			L267.61,238.51z"/>
		<path class="st11" d="M332.83,280.44l5.43,3.14c0.32,0.19,0.28,0.51-0.09,0.72l-2.35,1.36c-0.37,0.21-0.93,0.24-1.25,0.05
			l-5.43-3.14c-0.32-0.19-0.28-0.51,0.09-0.72l2.35-1.36C331.94,280.27,332.5,280.25,332.83,280.44z"/>
		<path class="st11" d="M325.23,276.05l5.43,3.14c0.32,0.19,0.28,0.51-0.09,0.72l-2.35,1.36c-0.37,0.21-0.93,0.24-1.25,0.05
			l-5.43-3.14c-0.32-0.19-0.28-0.51,0.09-0.72l2.35-1.36C324.35,275.89,324.91,275.87,325.23,276.05z"/>
		<path class="st11" d="M317.7,271.7l5.43,3.14c0.32,0.19,0.28,0.51-0.09,0.72l-2.35,1.36c-0.37,0.21-0.93,0.24-1.25,0.05
			l-5.43-3.14c-0.32-0.19-0.28-0.51,0.09-0.72l2.35-1.36C316.82,271.54,317.38,271.52,317.7,271.7z"/>
		<path class="st11" d="M329.39,273.65l5.43,3.14c0.32,0.19,0.28,0.51-0.09,0.72l-2.35,1.36c-0.37,0.21-0.93,0.24-1.25,0.05
			l-5.43-3.14c-0.32-0.19-0.28-0.51,0.09-0.72l2.35-1.36C328.51,273.49,329.07,273.47,329.39,273.65z"/>
	</g>
	<radialGradient id="SVGID_9_" cx="240.8779" cy="107.1847" r="223.3409" gradientUnits="userSpaceOnUse">
		<stop  offset="0" style="stop-color:#E39A65"/>
		<stop  offset="0.4742" style="stop-color:#A92FFB"/>
		<stop  offset="0.5875" style="stop-color:#891CFB"/>
		<stop  offset="0.7262" style="stop-color:#6507FA"/>
		<stop  offset="1" style="stop-color:#3919BB"/>
	</radialGradient>
	<path class="st12" d="M409.09,264.86L265.22,181.8c-2.26-1.31-3.44-4.49-2.64-7.11l32.53-105.63c0.81-2.62,3.29-3.68,5.56-2.38
		l143.86,83.06c2.26,1.31,3.44,4.49,2.64,7.11l-32.53,105.63C413.84,265.1,411.35,266.16,409.09,264.86z"/>
	<linearGradient id="SVGID_10_" gradientUnits="userSpaceOnUse" x1="265.4256" y1="165.8121" x2="444.392" y2="165.8121">
		<stop  offset="0" style="stop-color:#3919BB"/>
		<stop  offset="1" style="stop-color:#6507FA"/>
	</linearGradient>
	<path class="st13" d="M407.73,261.16l-139.54-80.63c-2.16-1.25-3.29-4.3-2.52-6.8l31.1-100.98c0.77-2.51,3.15-3.53,5.32-2.28
		l139.54,80.63c2.16,1.25,3.29,4.3,2.52,6.8l-31.1,100.98C412.27,261.39,409.89,262.41,407.73,261.16z"/>
	<path class="st14" d="M407.73,261.16l-139.54-80.63c-2.16-1.25-3.29-4.3-2.52-6.8l31.1-100.98c0.77-2.51,3.15-3.53,5.32-2.28
		l139.54,80.63c2.16,1.25,3.29,4.3,2.52,6.8l-31.1,100.98C412.27,261.39,409.89,262.41,407.73,261.16z"/>
	<path class="st14" d="M407.73,261.16l-139.54-80.63c-2.16-1.25-3.29-4.3-2.52-6.8l31.1-100.98c0.77-2.51,3.15-3.53,5.32-2.28
		l139.54,80.63c2.16,1.25,3.29,4.3,2.52,6.8l-31.1,100.98C412.27,261.39,409.89,262.41,407.73,261.16z"/>
	<path class="st15" d="M400.23,230.3l-94.46-54.54c-1.49-0.86-2.26-2.95-1.73-4.67l21.36-69.36c0.53-1.72,2.16-2.42,3.65-1.56
		l94.46,54.54c1.49,0.86,2.26,2.95,1.73,4.67l-21.36,69.36C403.35,230.46,401.72,231.15,400.23,230.3z"/>
	<g>
		<radialGradient id="SVGID_11_" cx="159.3462" cy="59.4914" r="347.8475" gradientUnits="userSpaceOnUse">
			<stop  offset="0" style="stop-color:#E39A65"/>
			<stop  offset="0.4742" style="stop-color:#A92FFB"/>
			<stop  offset="0.5875" style="stop-color:#891CFB"/>
			<stop  offset="0.7262" style="stop-color:#6507FA"/>
			<stop  offset="1" style="stop-color:#3919BB"/>
		</radialGradient>
		<path class="st16" d="M387.47,231.97l-94.46-54.54c-1.49-0.86-2.26-2.95-1.73-4.67l21.36-69.36c0.53-1.72,2.16-2.42,3.65-1.56
			l94.46,54.54c1.49,0.86,2.26,2.95,1.73,4.67l-21.36,69.36C390.59,232.13,388.96,232.83,387.47,231.97z"/>
	</g>
	<g class="st17">
		<path class="st11" d="M387.47,231.97l-94.46-54.54c-1.49-0.86-2.26-2.95-1.73-4.67l21.36-69.36c0.53-1.72,2.16-2.42,3.65-1.56
			l94.46,54.54c1.49,0.86,2.26,2.95,1.73,4.67l-21.36,69.36C390.59,232.13,388.96,232.83,387.47,231.97z"/>
	</g>
	<path class="st9" d="M410.75,156.38l-94.46-54.54c-0.93-0.54-1.92-0.46-2.66,0.09c0.45-0.01,0.91,0.09,1.36,0.35l94.46,54.54
		c1.49,0.86,2.26,2.95,1.73,4.67l-21.36,69.36c-0.2,0.64-0.55,1.14-0.99,1.47c1.01-0.03,1.92-0.72,2.28-1.91l21.36-69.36
		C413.01,159.33,412.23,157.24,410.75,156.38z"/>
	<path class="st14" d="M268.33,288.61c-1.3,0-2.55-0.27-3.5-0.82v0l-37.85-21.85c-1-0.58-1.55-1.41-1.55-2.33
		c0-1.07,0.76-2.13,2.09-2.89L247,249.47c2.38-1.37,5.87-1.51,7.96-0.31l37.84,21.85c1,0.58,1.55,1.41,1.56,2.33
		c0,1.07-0.76,2.13-2.09,2.89l-19.48,11.25C271.5,288.23,269.88,288.61,268.33,288.61z M251.48,249.45c-1.37,0-2.82,0.33-3.93,0.97
		l-19.48,11.25c-0.98,0.57-1.54,1.28-1.54,1.95c0,0.66,0.55,1.12,1.01,1.38l37.85,21.85c1.72,0.99,4.86,0.85,6.86-0.31l19.48-11.25
		c0.98-0.57,1.54-1.27,1.54-1.95c0-0.66-0.55-1.12-1.01-1.38l-37.84-21.85C253.64,249.66,252.59,249.45,251.48,249.45z"/>
</g>
<g>
	<g>
		<path class="st9" d="M339.3,138.24l-5.84-3.37c-0.54-0.31-0.83-1.06-0.65-1.68l0,0c0.18-0.61,0.77-0.86,1.31-0.55l5.84,3.37
			c0.54,0.31,0.83,1.06,0.65,1.68l0,0C340.43,138.3,339.84,138.55,339.3,138.24z"/>
		<path class="st9" d="M353.21,146.27l-8.61-4.97c-0.54-0.31-0.83-1.06-0.65-1.68l0,0c0.18-0.61,0.77-0.86,1.31-0.55l8.61,4.97
			c0.54,0.31,0.83,1.06,0.65,1.68l0,0C354.34,146.34,353.75,146.58,353.21,146.27z"/>
		<path class="st9" d="M327.52,164.24l-5.84-3.37c-0.54-0.31-0.83-1.06-0.65-1.68l0,0c0.18-0.61,0.77-0.86,1.31-0.55l5.84,3.37
			c0.54,0.31,0.83,1.06,0.65,1.68l0,0C328.65,164.3,328.06,164.55,327.52,164.24z"/>
		<path class="st9" d="M339.92,171.39l-8.61-4.97c-0.54-0.31-0.83-1.06-0.65-1.68l0,0c0.18-0.61,0.77-0.86,1.31-0.55l8.61,4.97
			c0.54,0.31,0.83,1.06,0.65,1.68l0,0C341.05,171.46,340.46,171.71,339.92,171.39z"/>
		<path class="st9" d="M321.8,133.6l-3.65-2.11c-0.54-0.31-0.83-1.06-0.65-1.68l0,0c0.18-0.61,0.77-0.86,1.31-0.55l3.65,2.11
			c0.54,0.31,0.83,1.06,0.65,1.68l0,0C322.93,133.67,322.34,133.92,321.8,133.6z"/>
		<path class="st9" d="M332.78,145.41l-11.15-6.44c-0.54-0.31-0.83-1.06-0.65-1.68l0,0c0.18-0.61,0.77-0.86,1.31-0.55l11.15,6.44
			c0.54,0.31,0.83,1.06,0.65,1.68l0,0C333.91,145.47,333.32,145.72,332.78,145.41z"/>
		<path class="st9" d="M322.5,150.4l-3.65-2.11c-0.54-0.31-0.83-1.06-0.65-1.68l0,0c0.18-0.61,0.77-0.86,1.31-0.55l3.65,2.11
			c0.54,0.31,0.83,1.06,0.65,1.68h0C323.63,150.47,323.04,150.72,322.5,150.4z"/>
		<path class="st9" d="M341.26,183.1l-9.74-5.63c-0.54-0.31-0.83-1.06-0.65-1.68l0,0c0.18-0.61,0.77-0.86,1.31-0.55l9.74,5.63
			c0.54,0.31,0.83,1.06,0.65,1.68l0,0C342.39,183.17,341.8,183.42,341.26,183.1z"/>
		<path class="st9" d="M318.41,158.98l-2.34-1.35c-0.54-0.31-0.83-1.06-0.65-1.68l0,0c0.18-0.61,0.77-0.86,1.31-0.55l2.34,1.35
			c0.54,0.31,0.83,1.06,0.65,1.68l0,0C319.54,159.04,318.95,159.29,318.41,158.98z"/>
		<path class="st9" d="M316.19,168.63l-2.91-1.68c-0.54-0.31-0.83-1.06-0.65-1.68v0c0.18-0.61,0.77-0.86,1.31-0.55l2.91,1.68
			c0.54,0.31,0.83,1.06,0.65,1.68l0,0C317.32,168.7,316.74,168.94,316.19,168.63z"/>
		<path class="st9" d="M327.51,175.16l-7.67-4.43c-0.54-0.31-0.83-1.06-0.65-1.68l0,0c0.18-0.61,0.77-0.86,1.31-0.55l7.67,4.43
			c0.54,0.31,0.83,1.06,0.65,1.68l0,0C328.64,175.23,328.05,175.47,327.51,175.16z"/>
		<path class="st9" d="M317.41,174.8l-5.51-3.18c-0.54-0.31-0.83-1.06-0.65-1.68l0,0c0.18-0.61,0.77-0.86,1.31-0.55l5.51,3.18
			c0.54,0.31,0.83,1.06,0.65,1.68l0,0C318.54,174.87,317.95,175.11,317.41,174.8z"/>
		<path class="st9" d="M349.62,187.95l-3.54-2.04c-0.54-0.31-0.83-1.06-0.65-1.68l0,0c0.18-0.61,0.77-0.86,1.31-0.55l3.54,2.04
			c0.54,0.31,0.83,1.06,0.65,1.68l0,0C350.75,188.02,350.16,188.27,349.62,187.95z"/>
		<path class="st9" d="M336.07,158.24l-9.74-5.63c-0.54-0.31-0.83-1.06-0.65-1.68l0,0c0.18-0.61,0.77-0.86,1.31-0.55l9.74,5.63
			c0.54,0.31,0.83,1.06,0.65,1.68l0,0C337.2,158.31,336.61,158.55,336.07,158.24z"/>
	</g>
	<path class="st18" d="M337.22,153.44l-16.98-9.8c-0.54-0.31-0.83-1.06-0.65-1.68l0,0c0.18-0.61,0.77-0.86,1.31-0.55l16.98,9.8
		c0.54,0.31,0.83,1.06,0.65,1.68l0,0C338.35,153.51,337.77,153.75,337.22,153.44z"/>
	<path class="st18" d="M327.2,158.59l-9.74-5.63c-0.54-0.31-0.83-1.06-0.65-1.68l0,0c0.18-0.61,0.77-0.86,1.31-0.55l9.74,5.63
		c0.54,0.31,0.83,1.06,0.65,1.68l0,0C328.33,158.65,327.74,158.9,327.2,158.59z"/>
	<path class="st18" d="M343.46,162.51l-3.54-2.04c-0.54-0.31-0.83-1.06-0.65-1.68l0,0c0.18-0.61,0.77-0.86,1.31-0.55l3.54,2.04
		c0.54,0.31,0.83,1.06,0.65,1.68l0,0C344.59,162.57,344,162.82,343.46,162.51z"/>
	<path class="st18" d="M379.47,161.43l-20.96-12.1c-0.54-0.31-0.83-1.06-0.65-1.68l0,0c0.18-0.61,0.77-0.86,1.31-0.55l20.96,12.1
		c0.54,0.31,0.83,1.06,0.65,1.68l0,0C380.6,161.5,380.01,161.74,379.47,161.43z"/>
	<path class="st19" d="M326.39,169.05l-11.71-6.76c-0.54-0.31-0.83-1.06-0.65-1.68l0,0c0.18-0.61,0.77-0.86,1.31-0.55l11.71,6.76
		c0.54,0.31,0.83,1.06,0.65,1.68l0,0C327.52,169.12,326.93,169.36,326.39,169.05z"/>
	<path class="st19" d="M328.16,131.8l-8.61-4.97c-0.54-0.31-0.83-1.06-0.65-1.68l0,0c0.18-0.61,0.77-0.86,1.31-0.55l8.61,4.97
		c0.54,0.31,0.83,1.06,0.65,1.68l0,0C329.29,131.87,328.7,132.12,328.16,131.8z"/>
	<path class="st18" d="M315.61,179.22l-9.97-5.76c-0.54-0.31-0.83-1.06-0.65-1.68l0,0c0.18-0.61,0.77-0.86,1.31-0.55l9.97,5.76
		c0.54,0.31,0.83,1.06,0.65,1.68l0,0C316.74,179.29,316.15,179.54,315.61,179.22z"/>
</g>
<g>
	<path class="st9" d="M381.82,150.65l-4.27-2.46c-0.4-0.23-0.61-0.78-0.47-1.23l0,0c0.13-0.45,0.56-0.63,0.96-0.4l4.27,2.46
		c0.4,0.23,0.61,0.78,0.47,1.23l0,0C382.65,150.7,382.22,150.88,381.82,150.65z"/>
	<path class="st9" d="M389.97,155.35l-4.27-2.46c-0.4-0.23-0.61-0.78-0.47-1.23l0,0c0.13-0.45,0.56-0.63,0.96-0.4l4.27,2.46
		c0.4,0.23,0.61,0.78,0.47,1.23l0,0C390.79,155.4,390.36,155.58,389.97,155.35z"/>
	<path class="st9" d="M398.11,160.05l-4.27-2.46c-0.4-0.23-0.61-0.78-0.47-1.23l0,0c0.13-0.45,0.56-0.63,0.96-0.4l4.27,2.46
		c0.4,0.23,0.61,0.78,0.47,1.23l0,0C398.93,160.1,398.5,160.28,398.11,160.05z"/>
	<path class="st19" d="M402.11,162.36l-0.13-0.08c-0.4-0.23-0.61-0.78-0.47-1.23l0,0c0.13-0.45,0.56-0.63,0.96-0.4l0.13,0.08
		c0.4,0.23,0.61,0.78,0.47,1.23l0,0C402.94,162.41,402.51,162.59,402.11,162.36z"/>
</g>
<linearGradient id="SVGID_12_" gradientUnits="userSpaceOnUse" x1="143.4096" y1="190.2935" x2="220.185" y2="190.2935">
	<stop  offset="0" style="stop-color:#E39A65"/>
	<stop  offset="1" style="stop-color:#E95F8D"/>
</linearGradient>
<path class="st20" d="M181.8,212.32c-2.7,0-5.4-0.7-7.81-2.09l0,0l-28.59-16.51c-1.24-0.72-1.98-2-1.98-3.43
	c0-1.43,0.74-2.71,1.98-3.43l28.59-16.51c4.82-2.78,10.81-2.78,15.63,0l28.59,16.51c1.24,0.72,1.98,2,1.98,3.43
	c0,1.43-0.74,2.71-1.98,3.43l-28.59,16.51C187.2,211.62,184.5,212.32,181.8,212.32z M174.91,208.62c4.25,2.45,9.52,2.45,13.77,0
	l28.59-16.51c0.66-0.38,1.05-1.06,1.05-1.82s-0.39-1.44-1.05-1.82l-28.59-16.51c-4.25-2.45-9.52-2.45-13.77,0l-28.59,16.51
	c-0.66,0.38-1.05,1.06-1.05,1.82c0,0.76,0.39,1.44,1.05,1.82L174.91,208.62z"/>
<g>
	<ellipse class="st4" cx="181.65" cy="190.68" rx="19.64" ry="11.34"/>
	<radialGradient id="SVGID_13_" cx="150.2162" cy="127.668" r="165.349" gradientUnits="userSpaceOnUse">
		<stop  offset="0" style="stop-color:#E39A65"/>
		<stop  offset="0.1528" style="stop-color:#A92FFB"/>
		<stop  offset="0.4087" style="stop-color:#3919BB"/>
		<stop  offset="0.9311" style="stop-color:#3919BB"/>
	</radialGradient>
	<path class="st21" d="M210.77,109.86h-55.94l5.2,60.57l0,0c0,3.36,2.22,6.73,6.67,9.29c8.89,5.13,23.31,5.13,32.2,0
		c4.45-2.57,6.67-5.93,6.67-9.3L210.77,109.86z"/>
	<path class="st14" d="M210.77,109.86h-55.94l0.86,9.96c1.28,1.64,3.01,3.22,5.18,4.66c10.69,7.09,28.33,8.46,40.36,3.35l-1.86,44.3
		c-0.08,1.93-0.75,3.81-2,5.28c-1.81,2.13-5.3,4.64-12.01,6.06c4.95-0.32,9.75-1.57,13.54-3.76c4.45-2.57,6.67-5.93,6.67-9.3
		l4.17-48.57l0,0L210.77,109.86z"/>
	<ellipse class="st14" cx="182.8" cy="109.86" rx="27.97" ry="16.15"/>
	<ellipse class="st14" cx="182.8" cy="104.17" rx="24.09" ry="13.91"/>
	<linearGradient id="SVGID_14_" gradientUnits="userSpaceOnUse" x1="153.1426" y1="107.1846" x2="212.452" y2="107.1846">
		<stop  offset="0" style="stop-color:#E39A65"/>
		<stop  offset="0.252" style="stop-color:#A92FFB"/>
		<stop  offset="0.5556" style="stop-color:#3919BB"/>
	</linearGradient>
	<path class="st22" d="M212.42,109.1L212.42,109.1l0-0.05c0-0.03-0.01-0.06-0.01-0.08l-0.54-5.42l-0.02,0.06
		c-0.24-4.1-3.07-8.17-8.49-11.3c-11.36-6.56-29.77-6.56-41.13,0c-5.56,3.21-8.39,7.4-8.51,11.61l-0.01-0.01l-0.51,4.83
		c-0.01,0.13-0.03,0.25-0.04,0.38l-0.01,0.08l0.01,0c-0.31,4.6,2.58,9.26,8.66,12.77c11.58,6.69,30.36,6.69,41.94,0
		C209.89,118.43,212.77,113.73,212.42,109.1z"/>
	<linearGradient id="SVGID_15_" gradientUnits="userSpaceOnUse" x1="158.7038" y1="104.171" x2="206.8881" y2="104.171">
		<stop  offset="0" style="stop-color:#4F1FEC"/>
		<stop  offset="1" style="stop-color:#A92FFB"/>
	</linearGradient>
	<ellipse class="st23" cx="182.8" cy="104.17" rx="24.09" ry="13.91"/>
	<linearGradient id="SVGID_16_" gradientUnits="userSpaceOnUse" x1="157.5606" y1="104.171" x2="205.7449" y2="104.171">
		<stop  offset="0" style="stop-color:#4F1FEC"/>
		<stop  offset="1" style="stop-color:#A92FFB"/>
	</linearGradient>
	<ellipse class="st24" cx="181.65" cy="104.17" rx="24.09" ry="13.91"/>
	<path class="st14" d="M168.62,96.41c9.41-5.43,24.66-5.43,34.07,0c0.12,0.07,0.22,0.14,0.34,0.22c-0.91-0.81-1.97-1.58-3.19-2.29
		c-9.41-5.43-24.66-5.43-34.07,0c-9.29,5.36-9.39,14.01-0.34,19.46C159.38,108.4,160.44,101.13,168.62,96.41z"/>
	<linearGradient id="SVGID_17_" gradientUnits="userSpaceOnUse" x1="158.7078" y1="97.82" x2="219.46" y2="97.82">
		<stop  offset="0" style="stop-color:#131060"/>
		<stop  offset="0.1857" style="stop-color:#141062"/>
		<stop  offset="0.2823" style="stop-color:#19106A"/>
		<stop  offset="0.3584" style="stop-color:#221078"/>
		<stop  offset="0.4238" style="stop-color:#2E0F8B"/>
		<stop  offset="0.4823" style="stop-color:#3E0FA3"/>
		<stop  offset="0.5359" style="stop-color:#510EC2"/>
		<stop  offset="0.5847" style="stop-color:#680DE5"/>
		<stop  offset="0.6071" style="stop-color:#740DF8"/>
		<stop  offset="0.6179" style="stop-color:#7A14F0"/>
		<stop  offset="0.6826" style="stop-color:#9B3CC3"/>
		<stop  offset="0.7477" style="stop-color:#B75D9D"/>
		<stop  offset="0.8123" style="stop-color:#CC7680"/>
		<stop  offset="0.8762" style="stop-color:#DC886C"/>
		<stop  offset="0.9391" style="stop-color:#E5935F"/>
		<stop  offset="1" style="stop-color:#E8975B"/>
	</linearGradient>
	<path class="st25" d="M165.76,96.75c9.41-5.43,24.66-5.43,34.07,0c4.17,2.41,6.49,5.48,6.96,8.63c0.59-3.95-1.73-8.02-6.96-11.04
		c-9.41-5.43-24.66-5.43-34.07,0c-5.24,3.02-7.55,7.09-6.96,11.04C159.27,102.23,161.59,99.16,165.76,96.75z"/>
	<radialGradient id="SVGID_18_" cx="145.7399" cy="90.4045" r="108.1645" gradientUnits="userSpaceOnUse">
		<stop  offset="0" style="stop-color:#E39A65"/>
		<stop  offset="0.252" style="stop-color:#A92FFB"/>
		<stop  offset="0.7357" style="stop-color:#3919BB"/>
	</radialGradient>
	<path class="st26" d="M203.54,92.44c-11.34-6.68-29.82-6.84-41.28-0.36c-11.46,6.48-11.55,17.15-0.21,23.83
		c11.34,6.68,29.82,6.84,41.28,0.36C214.79,109.79,214.88,99.12,203.54,92.44z M199.83,114.01c-3.14,1.81-6.94,3.01-10.96,3.61
		l-0.44-1.44c-0.18-0.58-0.71-0.98-1.32-0.98h-8.65c-0.61,0-1.14,0.4-1.32,0.98l-0.44,1.44c-4.01-0.6-7.81-1.8-10.95-3.61
		c-9.41-5.43-9.41-14.24,0-19.67c9.41-5.43,24.66-5.43,34.07,0C209.24,99.77,209.24,108.57,199.83,114.01z"/>
	<g>
		<path class="st9" d="M199.83,93.31c-9.41-5.43-24.66-5.43-34.07,0c-4.93,2.85-7.27,6.62-7.03,10.35c0.22-3.39,2.56-6.74,7.03-9.32
			c9.41-5.43,24.66-5.43,34.07,0c4.48,2.58,6.82,5.93,7.04,9.32C207.1,99.93,204.76,96.15,199.83,93.31z"/>
		<path class="st9" d="M203.33,115.24c-11.46,6.48-29.94,6.32-41.28-0.36c-5.4-3.18-8.2-7.26-8.42-11.37
			c-0.22,4.45,2.58,8.95,8.42,12.4c11.34,6.68,29.82,6.84,41.28,0.36c6-3.4,8.88-7.94,8.63-12.46
			C211.75,107.98,208.88,112.1,203.33,115.24z"/>
	</g>
	<path class="st27" d="M185.38,118.37h-5.17c-0.36,0-0.65-0.29-0.65-0.65v-0.09c0-0.36,0.29-0.65,0.65-0.65h5.17
		c0.36,0,0.65,0.29,0.65,0.65v0.09C186.03,118.07,185.74,118.37,185.38,118.37z"/>
	<linearGradient id="SVGID_19_" gradientUnits="userSpaceOnUse" x1="178.9827" y1="117.4271" x2="187.3873" y2="117.4271">
		<stop  offset="0" style="stop-color:#131060"/>
		<stop  offset="0.1857" style="stop-color:#141062"/>
		<stop  offset="0.2823" style="stop-color:#19106A"/>
		<stop  offset="0.3584" style="stop-color:#221078"/>
		<stop  offset="0.4238" style="stop-color:#2E0F8B"/>
		<stop  offset="0.4823" style="stop-color:#3E0FA3"/>
		<stop  offset="0.5359" style="stop-color:#510EC2"/>
		<stop  offset="0.5847" style="stop-color:#680DE5"/>
		<stop  offset="0.6071" style="stop-color:#740DF8"/>
		<stop  offset="0.6179" style="stop-color:#7A14F0"/>
		<stop  offset="0.6826" style="stop-color:#9B3CC3"/>
		<stop  offset="0.7477" style="stop-color:#B75D9D"/>
		<stop  offset="0.8123" style="stop-color:#CC7680"/>
		<stop  offset="0.8762" style="stop-color:#DC886C"/>
		<stop  offset="0.9391" style="stop-color:#E5935F"/>
		<stop  offset="1" style="stop-color:#E8975B"/>
	</linearGradient>
	<path class="st28" d="M185.38,116.97h-5.17c-0.36,0-0.65,0.29-0.65,0.65v0.09c0,0.06,0.02,0.12,0.04,0.17
		c0.08-0.27,0.32-0.48,0.62-0.48h5.17c0.3,0,0.54,0.21,0.62,0.48c0.02-0.06,0.04-0.11,0.04-0.17v-0.09
		C186.03,117.26,185.74,116.97,185.38,116.97z"/>
	<g>
		<path class="st18" d="M183.59,164.21c-0.63,2.39-3.08,3.8-5.47,3.17c-2.39-0.63-3.8-3.08-3.17-5.47c0.63-2.39,2.88-3.06,5.27-2.43
			C182.6,160.12,184.22,161.83,183.59,164.21z"/>
		<path class="st18" d="M187.11,159.5c-0.9,0.88-2.05,0.77-2.81-0.02c-0.76-0.78-0.85-1.93,0.05-2.81c0.9-0.88,2.61-1.31,3.37-0.53
			C188.48,156.92,188.01,158.62,187.11,159.5z"/>
		<path class="st18" d="M182.43,155.76c-0.22,1.24-1.22,1.82-2.3,1.62c-1.08-0.19-1.82-1.08-1.6-2.32c0.22-1.24,1.36-2.59,2.44-2.39
			C182.05,152.87,182.65,154.52,182.43,155.76z"/>
		<path class="st18" d="M176.67,155.19c0.48,1.16-0.06,2.19-1.07,2.6c-1.01,0.42-2.11,0.07-2.59-1.1c-0.48-1.16-0.24-2.91,0.77-3.33
			C174.79,152.95,176.19,154.03,176.67,155.19z"/>
	</g>
</g>
<path class="st29" d="M184.63,117.67c0,0,15.64-5.24,9.31-23.21s-18.66-23.45-13.7-37.82c0,0-7.78,11.64-0.51,27.38
	c7.27,15.75,8.87,13.94,8.78,21.47c-0.1,8.95-7.33,12.18-7.33,12.18H184.63z"/>
<path class="st29" d="M186.03,59.13c0,0-1.63-10.75,8.46-21.58c0,0-8.92,19.92-6,29.75C188.49,67.3,186.13,61.05,186.03,59.13z"/>
</svg>
